<svg version="1.1"
      xmlns="http://www.w3.org/2000/svg"
      xmlns:xlink="http://www.w3.org/1999/xlink"  id="snapshot-66502" width="250" height="250" viewBox="0 0 250 250"><desc>This image was made on Patterninja.com</desc><defs>
<!-- image 64470 -->
<g id="transformed-64470" data-image="64470" transform="translate(221.9128239931235, 72.50490243203608) rotate(348, 25.087176006876497, 25.495097567963924)"><g><svg version="1.1" width="50.174352013752994px" height="50.99019513592785px" viewBox="0 0 50.174352013752994 50.99019513592785"><g id="original-64470"><svg xmlns="http://www.w3.org/2000/svg" viewBox="0 0 70 71" xmlns:xlink="http://www.w3.org/1999/xlink" version="1.1" preserveAspectRatio="xMidYMid meet">
  <rect width="56" height="50" x="7" y="21" fill-rule="evenodd" rx="3" fill="rgba(99, 132, 190, 1)" stroke="none"/>
  <path fill-rule="evenodd" d="M35 21h25.009A2.991 2.991 0 0 1 63 23.997v44.006A2.996 2.996 0 0 1 60.009 71H35V21z" fill="rgba(76, 112, 175, 1)" stroke="none"/>
  <path fill-rule="evenodd" d="M63 57l7-4V38l-7-4v23zM0 38v15l7 4V34l-7 4z" fill="rgba(57, 81, 122, 1)" stroke="none"/>
  <path fill-rule="evenodd" d="M42 7a7 7 0 1 0-14 0 7 7 0 0 0 5 6.706V21h4v-7.294A7 7 0 0 0 42 7" fill="rgba(160, 171, 189, 1)" stroke="none"/>
  <path fill-rule="evenodd" d="M45 41a5 5 0 1 0 .001 10.001A5 5 0 0 0 45 41m-20 0a5 5 0 1 0 .001 10.001A5 5 0 0 0 25 41" fill="rgba(255, 255, 255, 1)" stroke="none"/>
</svg>
</g></svg></g></g>
<!-- /image 64470 -->

<!-- image 43159 -->
<g id="transformed-43159" data-image="43159" transform="translate(89.07150160685404, 135.18921355543472) rotate(336, 34.92849839314596, 33.81078644456529)"><g><svg version="1.1" width="69.85699678629192px" height="67.62157288913058px" viewBox="0 0 69.85699678629192 67.62157288913058"><g id="original-43159"><svg xmlns="http://www.w3.org/2000/svg" viewBox="0 0 70 68" xmlns:xlink="http://www.w3.org/1999/xlink" version="1.1" preserveAspectRatio="xMidYMid meet">
  <path fill-rule="evenodd" d="M14 65c9.113 0 11-2.853 11-8 0-.169-.02-.832-.025-1h20.05c0 .168-.025.831-.025 1 0 5.147 1.887 8 11 8v3H14v-3z" fill="rgba(81, 96, 120, 1)" stroke="none"/>
  <rect width="70" height="54" y="2" fill-rule="evenodd" rx="6" fill="rgba(111, 130, 164, 1)" stroke="none"/>
  <path fill-rule="evenodd" d="M70 47V5.998A5.993 5.993 0 0 0 64.002 0H5.998A5.995 5.995 0 0 0 0 5.998V47h70z" fill="rgba(165, 181, 211, 1)" stroke="none"/>
  <circle cx="35" cy="52" r="3" fill-rule="evenodd" fill="rgba(80, 96, 121, 1)" stroke="none"/>
</svg>
</g></svg></g></g>
<!-- /image 43159 -->

<!-- image 82051 -->
<g id="transformed-82051" data-image="82051" transform="translate(-14.671623223079305, -18.24828759089466) rotate(350, 14.671623223079305, 18.24828759089466)"><g><svg version="1.1" width="29.34324644615861px" height="36.49657518178932px" viewBox="0 0 29.34324644615861 36.49657518178932"><g id="original-82051"><svg xmlns="http://www.w3.org/2000/svg" viewBox="0 0 58 72" xmlns:xlink="http://www.w3.org/1999/xlink" version="1.1" preserveAspectRatio="xMidYMid meet">
  <path fill-rule="evenodd" d="M58 12.5v38.541c0 4.285-4.925 8.63-11 9.707s-11-1.524-11-5.809 4.925-8.63 11-9.707c1.8-.319 3.5-.315 5-.04V20L22 30v32.041c0 4.285-4.925 8.63-11 9.707S0 70.224 0 65.939s4.925-8.63 11-9.707c1.8-.319 3.5-.315 5-.04V14L58 0v12.5zM22 15L52 5v4L22 19v-4zm0 7l30-10v4L22 26v-4z" fill="rgba(218, 134, 60, 1)" stroke="none"/>
</svg>
</g></svg></g></g>
<!-- /image 82051 -->
</defs><rect x="0" y="0" width="250" height="250" fill="rgba(14, 62, 115, 1)"></rect><use xlink:href="#transformed-64470" transform="translate(-250, -250)"></use><use xlink:href="#transformed-64470" transform="translate(0, -250)"></use><use xlink:href="#transformed-64470" transform="translate(250, -250)"></use><use xlink:href="#transformed-64470" transform="translate(-250, 0)"></use><use xlink:href="#transformed-64470" transform="translate(0, 0)"></use><use xlink:href="#transformed-64470" transform="translate(250, 0)"></use><use xlink:href="#transformed-64470" transform="translate(-250, 250)"></use><use xlink:href="#transformed-64470" transform="translate(0, 250)"></use><use xlink:href="#transformed-64470" transform="translate(250, 250)"></use><use xlink:href="#transformed-43159" transform="translate(-250, -250)"></use><use xlink:href="#transformed-43159" transform="translate(0, -250)"></use><use xlink:href="#transformed-43159" transform="translate(250, -250)"></use><use xlink:href="#transformed-43159" transform="translate(-250, 0)"></use><use xlink:href="#transformed-43159" transform="translate(0, 0)"></use><use xlink:href="#transformed-43159" transform="translate(250, 0)"></use><use xlink:href="#transformed-43159" transform="translate(-250, 250)"></use><use xlink:href="#transformed-43159" transform="translate(0, 250)"></use><use xlink:href="#transformed-43159" transform="translate(250, 250)"></use><use xlink:href="#transformed-82051" transform="translate(-250, -250)"></use><use xlink:href="#transformed-82051" transform="translate(0, -250)"></use><use xlink:href="#transformed-82051" transform="translate(250, -250)"></use><use xlink:href="#transformed-82051" transform="translate(-250, 0)"></use><use xlink:href="#transformed-82051" transform="translate(0, 0)"></use><use xlink:href="#transformed-82051" transform="translate(250, 0)"></use><use xlink:href="#transformed-82051" transform="translate(-250, 250)"></use><use xlink:href="#transformed-82051" transform="translate(0, 250)"></use><use xlink:href="#transformed-82051" transform="translate(250, 250)"></use></svg>